<?xml version="1.0" encoding="UTF-8" standalone="no"?>
<!-- Created with Inkscape (http://www.inkscape.org/) -->
<svg
   xmlns:dc="http://purl.org/dc/elements/1.1/"
   xmlns:cc="http://web.resource.org/cc/"
   xmlns:rdf="http://www.w3.org/1999/02/22-rdf-syntax-ns#"
   xmlns:svg="http://www.w3.org/2000/svg"
   xmlns="http://www.w3.org/2000/svg"
   xmlns:sodipodi="http://sodipodi.sourceforge.net/DTD/sodipodi-0.dtd"
   xmlns:inkscape="http://www.inkscape.org/namespaces/inkscape"
   width="344.81"
   height="257.11105"
   id="svg2"
   sodipodi:version="0.32"
   inkscape:version="0.45.1"
   sodipodi:docbase="C:\Documents and Settings\Administrator\Desktop"
   sodipodi:docname="U+2116.svg"
   inkscape:output_extension="org.inkscape.output.svg.inkscape"
   version="1.0">
  <defs
     id="defs4" />
  <sodipodi:namedview
     id="base"
     pagecolor="#ffffff"
     bordercolor="#666666"
     borderopacity="1.0"
     gridtolerance="10000"
     guidetolerance="10"
     objecttolerance="10"
     inkscape:pageopacity="0.0"
     inkscape:pageshadow="2"
     inkscape:zoom="1"
     inkscape:cx="313.27903"
     inkscape:cy="113.12588"
     inkscape:document-units="px"
     inkscape:current-layer="layer1"
     inkscape:window-width="822"
     inkscape:window-height="581"
     inkscape:window-x="347"
     inkscape:window-y="134"
     height="257.11105px"
     width="344.81px"
     showgrid="false" />
  <metadata
     id="metadata7">
    <rdf:RDF>
      <cc:Work
         rdf:about="">
        <dc:format>image/svg+xml</dc:format>
        <dc:type
           rdf:resource="http://purl.org/dc/dcmitype/StillImage" />
      </cc:Work>
    </rdf:RDF>
  </metadata>
  <g
     inkscape:label="Layer 1"
     inkscape:groupmode="layer"
     id="layer1"
     transform="translate(2.5161932,2.5419975)">
    <path
       style="font-size:354px;font-style:normal;font-weight:normal;fill:#000000;fill-opacity:1;stroke:none;stroke-width:1px;stroke-linecap:butt;stroke-linejoin:miter;stroke-opacity:1;font-family:Times New Roman"
       d="M 94.811331,6.7819519 L 181.92852,164.59543 L 181.92852,89.404999 C 181.92834,65.090722 182.82141,48.007243 184.60772,38.15451 C 186.39367,28.302184 191.03185,20.206978 198.52227,13.868866 C 206.0123,7.531209 215.34628,4.3622668 226.52422,4.36203 C 235.28181,4.3622668 242.13824,6.5517178 247.09356,10.930389 C 252.04839,15.309522 254.52593,20.322212 254.52618,25.968475 C 254.52593,30.578061 252.82622,34.640069 249.42705,38.15451 C 246.0274,41.669358 241.67731,43.426681 236.37676,43.426483 C 231.30622,43.426681 226.29353,41.871018 221.33868,38.759491 C 215.57675,35.187431 211.48593,33.4013 209.06621,33.401093 C 204.68711,33.4013 201.60459,35.61956 199.81866,40.055878 C 198.03233,44.492598 197.13927,54.834873 197.13946,71.082733 L 197.13946,246.52707 L 189.36114,246.52707 L 82.366019,55.180389 L 82.366019,167.87961 C 82.365943,193.00075 80.81028,210.22827 77.699027,219.56223 C 74.58763,228.89622 69.286854,235.72385 61.796683,240.04514 C 54.306401,244.36642 46.124768,246.52706 37.251761,246.52707 C 27.687287,246.52706 20.629188,244.33761 16.077445,239.95871 C 11.525682,235.57981 9.2498051,230.68235 9.2498078,225.26633 C 9.2498051,220.31127 11.007128,216.30688 14.52178,213.25314 C 18.036417,210.19946 22.328894,208.67261 27.399222,208.67258 C 32.008571,208.67261 37.194113,210.22827 42.955863,213.33957 C 49.408945,216.79662 53.845464,218.52514 56.265433,218.52512 C 60.529051,218.52514 63.409907,215.64428 64.908011,209.88254 C 66.405998,204.12086 67.155021,191.157 67.155081,170.99094 L 67.155081,50.513397 C 67.155021,37.607351 66.348381,29.19525 64.735159,25.277069 C 63.121822,21.35932 59.866454,18.392038 54.969046,16.375214 C 50.071542,14.358839 42.898209,13.292922 33.449027,13.17746 L 33.449027,6.7819519 L 94.811331,6.7819519 z M 277.34258,77.996796 C 291.05519,77.996959 303.61572,82.750372 315.02422,92.25705 C 326.43211,101.76402 332.1362,115.50571 332.13653,133.48215 C 332.1362,149.49982 327.29636,162.37725 317.617,172.11447 C 307.93701,181.85184 296.52881,186.72048 283.39239,186.72043 C 268.52689,186.72048 255.70708,181.21805 244.93291,170.2131 C 234.15827,159.2083 228.77107,145.58185 228.77129,129.33371 C 228.77107,115.39048 233.17878,103.3485 241.99444,93.207733 C 250.80962,83.067266 262.59233,77.996959 277.34258,77.996796 L 277.34258,77.996796 z M 276.13262,86.120819 C 262.41947,86.120974 255.56304,96.261589 255.56328,116.54269 C 255.56304,131.63851 258.64555,145.78351 264.81084,158.97775 C 270.97562,172.17216 278.60989,178.76932 287.71368,178.76926 C 300.5044,178.76932 306.8999,169.26249 306.9002,150.24875 C 306.8999,137.11213 304.19189,123.13998 298.77618,108.33224 C 293.35987,93.524775 285.81203,86.120974 276.13262,86.120819 L 276.13262,86.120819 z M 228.77129,221.8093 L 332.13653,221.8093 L 332.13653,241.16867 L 228.77129,241.16867 L 228.77129,221.8093 z "
       id="text2158" />
  </g>
</svg>
